<?xml version="1.0" encoding="utf-8"?>
<!-- Svg Vector Icons : http://www.onlinewebfonts.com/icon -->
<!DOCTYPE svg PUBLIC "-//W3C//DTD SVG 1.1//EN" "http://www.w3.org/Graphics/SVG/1.1/DTD/svg11.dtd">
<svg version="1.1" xmlns="http://www.w3.org/2000/svg" xmlns:xlink="http://www.w3.org/1999/xlink" x="0px" y="0px" viewBox="0 0 1000 1000" enable-background="new 0 0 1000 1000" xml:space="preserve">
<metadata> Svg Vector Icons : http://www.onlinewebfonts.com/icon </metadata>
<g><path d="M661.4,94.2c15.6,4.5,29.5,12.8,40.6,24c17.1,17.1,27.7,40.6,27.7,66.6v67.7c0,26-10.6,49.5-27.7,66.6c-17,17-40.5,27.6-66.5,27.6h-271c-25.9,0-49.5-10.6-66.5-27.6c-17.1-17.1-27.7-40.6-27.7-66.6v-67.7c0-26,10.6-49.5,27.6-66.6c11.1-11.1,25.1-19.5,40.7-24c2.4-21.9,12.3-41.7,27.1-56.5C382.8,20.6,406.3,10,432.3,10h135.4c26,0,49.6,10.6,66.6,27.7C649.1,52.4,659.1,72.2,661.4,94.2L661.4,94.2z M159.1,71.2c-32.6,0-62.3,13.4-83.7,34.8c-21.5,21.4-34.8,51.1-34.8,83.7v681.8c0,32.6,13.3,62.3,34.8,83.7c21.4,21.4,51.1,34.7,83.7,34.7h681.8c32.6,0,62.3-13.4,83.7-34.7c21.5-21.5,34.8-51.1,34.8-83.7V189.8c0-32.6-13.4-62.2-34.8-83.7c-21.4-21.4-51.1-34.8-83.7-34.8H703.7c9.1,5.5,17.6,12.3,25.4,19.9l0.1-0.1c12.1,12.1,21.9,26.7,28.7,43c6.6,15.7,10.2,32.8,10.2,50.7v67.7c0,17.8-3.6,34.9-10.2,50.6c-6.7,16.4-16.6,30.9-28.7,43.1c-12.1,12.1-26.8,21.9-43,28.7c-15.7,6.6-32.8,10.2-50.6,10.2h-271c-17.8,0-34.9-3.6-50.6-10.2c-16.3-6.7-30.9-16.6-43.1-28.7c-12.1-12.1-21.9-26.7-28.7-43.1c-6.6-15.7-10.2-32.8-10.2-50.6v-67.7c0-17.8,3.6-34.9,10.2-50.7c6.7-16.3,16.6-30.9,28.7-43c7.5-7.5,16-14.1,25.4-19.8H159.1L159.1,71.2z M270.3,706.3l60.7-61.1l89,88.1l248.7-248.8l60.9,60.9L420.8,855.9L270.3,706.3z"/></g>
</svg>