<svg width="500" viewBox="0 0 640 75" xmlns="http://www.w3.org/2000/svg">
 <metadata id="metadata15">image/svg+xml</metadata>
 <g>
  <g stroke="null" id="svg_1">
   <path stroke="null" id="path2383" d="m134.77069,38.40625c5.48491,-7.76231 3.76731,-19.16006 -0.92098,-22.44836c-8.27077,-6.00709 -17.31087,6.53024 -13.16773,19.00408c4.13492,12.83967 14.48583,21.81545 28.5772,24.38206c30.57086,5.40116 91.03957,-27.87797 129.38821,-38.06141c28.48777,-7.56491 45.88985,3.80243 55.2798,16.39219c-19.29917,-13.67034 -36.88891,-8.91579 -54.99125,-5.55937c-41.53501,7.70114 -84.49758,40.39831 -130.02243,35.25523c-21.25442,-3.17521 -36.14665,-24.28075 -34.92204,-40.83044c0.10878,-1.47068 0.34485,-2.90543 0.71509,-4.28847c2.7978,-9.80792 7.71364,-13.83054 12.06851,-15.02364c11.83778,-3.24333 23.5644,18.33216 7.99561,31.17813z" stroke-width="1px" fill-rule="evenodd" fill="#000000"/>
   <path stroke="null" d="m124.33021,45.41616c-8.42488,-7.47668 -17.11654,-19.08137 -24.87159,-24.21472c-81.53421,-53.97018 -123.3223,18.94294 -81.51125,39.89649c6.45152,3.23325 19.82111,5.17408 29.39918,-7.69966c-11.72021,8.93751 -24.72526,5.8688 -30.09756,1.24766c-14.30137,-12.30149 -9.28615,-29.75641 7.53235,-37.72819c26.49054,-10.11494 50.41754,0.70592 71.35524,15.71106c14.9541,8.96097 18.79184,13.14282 30.84132,18.61838c-6.8457,0.28436 -3.24939,-8.7127 -9.76365,-12.93475l7.11597,7.10373l-0.00001,0z" id="path2390" stroke-width="1px" fill-rule="evenodd" fill="#000000"/>
   <path stroke="null" id="path2479" d="m500.65113,35.03705c-5.81732,7.82753 -3.99558,19.3214 0.97679,22.63737c8.77198,6.05772 18.36012,-6.58531 13.96586,-19.16411c-4.38537,-12.94782 -15.36382,-21.99917 -30.30926,-24.58727c-32.42393,-5.44675 -96.55751,28.11261 -137.23064,38.38186c-30.21431,7.62856 -48.67116,-3.83449 -58.63018,-16.53027c20.46884,13.78547 39.1246,8.99089 58.32409,5.6062c44.05265,-7.76597 89.61919,-40.73852 137.90332,-35.55213c22.54265,3.20195 38.33751,24.48523 37.03873,41.17428c-0.11539,1.48318 -0.36581,2.9299 -0.75848,4.32459c-2.96739,9.89051 -8.18117,13.94691 -12.8,15.15015c-12.55526,3.27062 -24.99261,-18.48652 -8.48025,-31.44067l0.00001,0z" stroke-width="1px" fill-rule="evenodd" fill="#000000"/>
   <path stroke="null" d="m509.91107,25.0698c8.84011,7.41757 17.96019,18.93049 26.09759,24.02325c85.55313,53.5434 129.40099,-18.79316 85.52902,-39.58113c-6.76957,-3.20755 -20.79816,-5.13292 -30.84833,7.63891c12.29794,-8.86684 25.94401,-5.82241 31.58114,-1.23781c15.00633,12.20421 9.74384,29.5211 -7.90331,37.42983c-27.79663,10.03493 -52.90302,-0.70035 -74.87281,-15.58683c-15.69144,-8.8901 -19.71832,-13.03885 -32.36154,-18.47114c7.18314,-0.2821 3.40957,8.6438 10.245,12.83248l-7.46676,-7.04757z" id="path2481" stroke-width="1px" fill-rule="evenodd" fill="#000000"/>
  </g>
 </g>
</svg>